<?xml version="1.0" standalone="no"?>
<!DOCTYPE svg PUBLIC "-//W3C//DTD SVG 20010904//EN"
 "http://www.w3.org/TR/2001/REC-SVG-20010904/DTD/svg10.dtd">
<svg version="1.0" xmlns="http://www.w3.org/2000/svg"
 width="474.000000pt" height="503.000000pt" viewBox="0 0 474.000000 503.000000"
 preserveAspectRatio="xMidYMid meet">
<metadata>
Created by potrace 1.16, written by Peter Selinger 2001-2019
</metadata>
<g transform="translate(0.000000,503.000000) scale(0.100000,-0.100000)"
fill="#000000" stroke="none">
<path d="M1025 4765 c-141 -27 -236 -69 -306 -137 -46 -44 -59 -73 -59 -128 0
-31 8 -46 43 -82 60 -62 212 -165 404 -276 7 -4 15 -41 18 -87 7 -97 22 -193
40 -257 l14 -48 -110 0 -109 0 0 -373 0 -373 -113 -100 c-63 -54 -177 -153
-255 -219 -77 -66 -141 -124 -141 -128 -1 -4 47 -62 105 -127 l106 -120 27 19
c14 11 35 28 46 38 11 10 41 36 65 58 l45 39 5 -896 5 -896 24 -26 24 -26 498
0 498 0 3 421 3 420 25 20 c24 18 42 19 428 16 l404 -2 19 -24 c18 -22 19 -45
19 -437 l0 -414 496 0 c302 0 502 4 513 10 10 5 23 17 27 27 5 10 11 423 14
918 l5 899 80 -69 c44 -39 87 -76 96 -83 14 -11 31 4 124 108 58 66 105 124
103 129 -2 4 -57 55 -124 112 -66 57 -228 197 -360 310 -303 262 -622 537
-698 603 -33 28 -83 71 -111 96 -28 25 -65 56 -81 70 -167 144 -410 353 -452
392 -30 27 -63 48 -75 48 -13 -1 -80 -51 -167 -126 -80 -69 -181 -157 -225
-194 -44 -38 -165 -143 -270 -233 l-190 -165 -3 139 -3 138 -147 3 -147 3 -22
89 c-13 48 -25 134 -29 190 l-6 101 42 45 c194 209 300 361 300 430 0 45 -66
110 -141 138 -74 27 -228 36 -324 17z m238 -79 c57 -23 87 -59 87 -102 0 -94
-193 -191 -357 -180 -167 12 -242 95 -170 189 33 43 130 93 207 106 73 13 187
7 233 -13z"/>
<path d="M1940 1420 l0 -60 316 0 315 0 -88 -83 c-48 -46 -124 -117 -169 -158
-45 -41 -152 -139 -238 -218 l-156 -144 0 -69 0 -68 428 2 427 3 3 58 3 57
-332 0 -332 0 69 62 c38 35 107 99 154 143 47 44 166 154 263 244 l178 164 -3
61 -3 61 -417 3 -418 2 0 -60z"/>
</g>
</svg>
